<?xml version="1.0" standalone="no"?>
<!DOCTYPE svg PUBLIC "-//W3C//DTD SVG 20010904//EN"
 "http://www.w3.org/TR/2001/REC-SVG-20010904/DTD/svg10.dtd">
<svg version="1.0" xmlns="http://www.w3.org/2000/svg"
 width="260.000000pt" height="260.000000pt" viewBox="0 0 260.000000 260.000000"
 preserveAspectRatio="xMidYMid meet">
<metadata>
Created by potrace 1.14, written by Peter Selinger 2001-2017
</metadata>
<g transform="translate(0.000000,260.000000) scale(0.100000,-0.100000)"
fill="#000000" stroke="none">
<path d="M1156 2094 c-200 -48 -376 -223 -429 -425 -20 -78 -21 -202 -2 -284
49 -209 222 -384 435 -439 55 -14 215 -15 273 -2 194 46 347 182 424 380 25
63 28 84 28 186 0 127 -6 159 -37 234 -114 270 -408 419 -692 350z"/>
<path d="M727 752 c-15 -3 -17 -19 -17 -133 0 -96 3 -129 13 -130 15 -1 1138
0 1155 0 10 1 12 31 10 133 l-3 131 -571 1 c-314 1 -578 0 -587 -2z"/>
</g>
</svg>
